<svg viewBox="0 0 1912 420" fill="none" xmlns="http://www.w3.org/2000/svg">
    <path d="M44 420C17.4903 420 -4.51928 398.184 2.15193 372.528C12.2551 333.672 34.7335 295.546 69.0757 259.273C117.32 208.316 188.033 162.016 277.178 123.015C366.322 84.0145 472.151 53.0775 588.624 31.9706C705.097 10.8636 829.931 -7.23273e-06 956 0C1082.07 7.23273e-06 1206.9 10.8636 1323.38 31.9706C1439.85 53.0776 1545.68 84.0146 1634.82 123.015C1723.97 162.016 1794.68 208.316 1842.92 259.273C1877.27 295.546 1899.74 333.672 1909.85 372.528C1916.52 398.184 1894.51 420 1868 420V420C1841.49 420 1820.54 398.116 1813.19 372.646C1803.56 339.278 1783.78 306.55 1754.23 275.346C1710.81 229.485 1647.17 187.814 1566.94 152.714C1486.71 117.613 1391.46 89.7698 1286.64 70.7736C1181.81 51.7773 1069.46 42 956 42C842.538 42 730.187 51.7772 625.362 70.7735C520.536 89.7698 425.29 117.613 345.06 152.714C264.83 187.814 201.188 229.485 157.768 275.346C128.225 306.55 108.437 339.278 98.8064 372.646C91.4553 398.116 70.5097 420 44 420V420Z"/>
</svg>